ply
format ascii 1.0
element vertex 20
property float32 x
property float32 y
property float32 z
element face 28
property list uint8 int32 vertex_indices
end_header
0.0 6.0 0.0
3.0 5.3 0.0
2.0 6.0 0.0
0.0 1.5 0.0
0.0 0.5 0.0
3.0 1.5 0.0
0.7 0.0 0.0
3.5 0.0 0.0
4.0 0.5 0.0
4.0 1.5 0.0
0.0 6.0 4.0
3.0 5.3 4.0
2.0 6.0 4.0
0.0 1.5 4.0
0.0 0.5 4.0
3.0 1.5 4.0
0.7 0.0 4.0
3.5 0.0 4.0
4.0 0.5 4.0
4.0 1.5 4.0
3 0 1 2
3 3 1 0
3 3 5 1
3 4 5 3
3 6 5 4
3 6 7 5
3 7 8 5
3 8 9 5
3 10 11 12
3 13 11 10
3 13 15 11
3 14 15 13
3 16 15 14
3 16 17 15
3 17 18 15
3 18 19 15
3 3 10 0
3 3 13 10
3 4 13 3
3 4 14 13
3 6 14 4
3 6 16 14
3 7 16 6
3 7 17 16
3 8 17 7
3 8 18 17
3 9 18 8
3 9 19 18


