ply
format ascii 1.0
element vertex 16
property float32 x
property float32 y
property float32 z
element face 22
property list uint8 int32 vertex_indices
end_header
0.0 0.0 0.0
2.0 0.0 0.0
0.0 1.0 0.0
2.0 1.0 0.0
3.0 -0.7 0.0
3.0 0.3 0.0
3.6 -1.4 0.0
3.6 -0.4 0.0
0.0 0.0 4.0
2.0 0.0 4.0
0.0 1.0 4.0
2.0 1.0 4.0
3.0 -0.7 4.0
3.0 0.3 4.0
3.6 -1.4 4.0
3.6 -0.4 4.0
3 0 3 2
3 0 1 3
3 1 5 3
3 1 4 5
3 4 7 5
3 4 6 7
3 8 11 10
3 8 9 11
3 9 13 11
3 9 12 13
3 12 15 13
3 12 14 15
3 0 10 2
3 0 8 10
3 2 3 10
3 3 11 10
3 3 5 11
3 5 13 11
3 5 7 13
3 7 15 13
3 6 15 7
3 6 14 15
