ply
format ascii 1.0
element vertex 42
property float32 x
property float32 y
property float32 z
element face 80
property list uint8 int32 vertex_indices
end_header
2.0 3.0 0.25
0.5 3.0 0.25
0.345492 2.97553 0.0
0.206107 2.90451 0.0
0.0954915 2.79389 0.0
0.0244717 2.65451 0.0
0.0 2.1 0.15
0.0 1.2 0.25
0.0 0.0 0.25
2.0 2.5 0.0
1.6 2.5 0.0
1.20549 2.40553 0.0
1.06611 2.31451 0.0
0.95549 2.20389 0.0
0.88447 1.97451 0.0
0.75 1.2 0.15
0.61 1.1 0.25
0.5 0.95459 0.25
0.43 0.8267 0.25
0.38 0.6541 0.25
0.38 0.0 0.25
2.0 3.0 0.75
0.5 3.0 0.75
0.345492 2.97553 1.0
0.206107 2.90451 1.0
0.0954915 2.79389 1.0
0.0244717 2.65451 1.0
0.0 2.1 1.0
0.0 1.2 0.85
0.0 0.0 0.75
2.0 2.5 1.0
1.6 2.5 1.0
1.20549 2.40553 1.0
1.06611 2.31451 1.0
0.95549 2.20389 1.0
0.88447 1.97451 1.0
0.75 1.2 0.85
0.61 1.1 0.75
0.5 0.95459 0.75
0.43 0.8267 0.75
0.38 0.6541 0.75
0.38 0.0 0.75
3 1 9 0
3 1 10 9
3 2 10 1
3 2 11 10
3 3 11 2
3 3 12 11
3 4 12 3
3 4 13 12
3 5 13 4
3 5 14 13
3 6 14 5
3 6 15 14
3 6 16 15
3 7 16 6
3 7 17 16
3 7 18 17
3 8 18 7
3 8 19 18
3 8 20 19
3 22 30 21
3 22 31 30
3 23 31 22
3 23 32 31
3 24 32 23
3 24 33 32
3 25 33 24
3 25 34 33
3 26 34 25
3 26 35 34
3 27 35 26
3 27 36 35
3 27 37 36
3 28 37 27
3 28 38 37
3 28 39 38
3 29 39 28
3 29 40 39
3 29 41 40
3 1 21 0
3 1 22 21
3 2 22 1
3 2 23 22
3 3 23 2
3 3 24 23
3 4 24 3
3 4 25 24
3 5 25 4
3 5 26 25
3 6 26 5
3 6 27 26
3 7 27 6
3 7 28 27
3 8 28 7
3 8 29 28
3 10 30 9
3 10 31 30
3 11 31 10
3 11 32 31
3 12 32 11
3 12 33 32
3 13 33 11
3 13 34 33
3 14 34 13
3 14 35 34
3 15 35 14
3 15 36 35
3 16 36 15
3 16 37 36
3 17 37 16
3 17 38 37
3 18 38 17
3 18 39 38
3 19 39 18
3 19 40 39
3 20 40 19
3 20 41 40
3 9 21 0
3 9 30 21
3 20 29 8
3 20 41 29
